<svg width="16.666687" height="13.333496" viewBox="0 0 16.6667 13.3335" fill="none" xmlns="http://www.w3.org/2000/svg" xmlns:xlink="http://www.w3.org/1999/xlink">
	<desc>
			Created with Pixso.
	</desc>
	<defs/>
	<path id="Vector" d="M1.66669 2.5L1.66669 4.1665C1.66669 4.625 1.29169 5 0.833313 5L0 5L0 8.3335L0.833313 8.3335C1.29169 8.3335 1.66669 8.7085 1.66669 9.1665L1.66669 10.8335C1.66669 12.2085 2.79169 13.3335 4.16669 13.3335L6.66669 13.3335L6.66669 11.6665L4.16669 11.6665C3.70831 11.6665 3.33331 11.2915 3.33331 10.8335L3.33331 9.1665C3.33331 8.0835 2.63336 7.1499 1.66669 6.80811L1.66669 6.5249C2.63336 6.18311 3.33331 5.25 3.33331 4.1665L3.33331 2.5C3.33331 2.0415 3.70831 1.6665 4.16669 1.6665L6.66669 1.6665L6.66669 0L4.16669 0C2.79169 0 1.66669 1.125 1.66669 2.5ZM15.8333 5C15.375 5 15 4.625 15 4.1665L15 2.5C15 1.125 13.875 0 12.5 0L10 0L10 1.6665L12.5 1.6665C12.9583 1.6665 13.3333 2.0415 13.3333 2.5L13.3333 4.1665C13.3333 5.25 14.0333 6.18311 15 6.5249L15 6.80811C14.0333 7.1499 13.3333 8.0752 13.3333 9.1665L13.3333 10.8335C13.3333 11.2915 12.9583 11.6665 12.5 11.6665L10 11.6665L10 13.3335L12.5 13.3335C13.875 13.3335 15 12.2085 15 10.8335L15 9.1665C15 8.7085 15.375 8.3335 15.8333 8.3335L16.6667 8.3335L16.6667 5L15.8333 5Z" fill="#ECF1F0" fill-opacity="1.000000" fill-rule="nonzero"/>
</svg>
