<svg width="20.000000" height="20.000000" viewBox="0 0 20 20" fill="none" xmlns="http://www.w3.org/2000/svg" xmlns:xlink="http://www.w3.org/1999/xlink">
	<desc>
			Created with Pixso.
	</desc>
	<defs>
		<clipPath id="clip15_185">
			<rect id="ic:baseline-phishing" width="20.000000" height="20.000000" transform="matrix(1 8.74228e-08 8.74228e-08 -1 0 20)" fill="white" fill-opacity="0"/>
		</clipPath>
	</defs>
	<rect id="ic:baseline-phishing" width="20.000000" height="20.000000" transform="matrix(1 8.74228e-08 8.74228e-08 -1 0 20)" fill="#FFFFFF" fill-opacity="0"/>
	<g clip-path="url(#clip15_185)">
		<path id="Vector" d="M15.8334 7.5C15.8334 6.4165 15.1334 5.5 14.1667 5.1499L14.1667 1.6665L12.5001 1.6665L12.5001 5.1499C11.5334 5.5 10.8334 6.4165 10.8334 7.5C10.8334 8.58301 11.5334 9.5 12.5001 9.84961L12.5001 12.5C12.5001 14.3413 11.0084 15.833 9.16675 15.833C7.32507 15.833 5.83337 14.3413 5.83337 12.5L5.83337 11.6665L8.33337 11.6665L4.16675 7.5L4.16675 12.5C4.16675 15.2583 6.40845 17.5 9.16675 17.5C11.925 17.5 14.1667 15.2583 14.1667 12.5L14.1667 9.84961C15.1334 9.5 15.8334 8.58301 15.8334 7.5ZM13.3334 8.33301C12.8751 8.33301 12.5001 7.95801 12.5001 7.5C12.5001 7.0415 12.8751 6.6665 13.3334 6.6665C13.7917 6.6665 14.1667 7.0415 14.1667 7.5C14.1667 7.95801 13.7917 8.33301 13.3334 8.33301Z" fill="#ECF1F0" fill-opacity="1.000000" fill-rule="nonzero"/>
	</g>
</svg>
