<svg width="17.499512" height="13.336914" viewBox="0 0 17.4995 13.3369" fill="none" xmlns="http://www.w3.org/2000/svg" xmlns:xlink="http://www.w3.org/1999/xlink">
	<desc>
			Created with Pixso.
	</desc>
	<defs/>
	<path id="Vector" d="M2.69275 1.1084C3.80103 0.591797 5.0011 0.216797 6.2511 0C6.26196 -0.000488281 6.27295 0.00195312 6.28296 0.00585938C6.29309 0.0102539 6.30212 0.0170898 6.30933 0.0249023C6.45935 0.299805 6.6344 0.658203 6.7511 0.933594C8.0769 0.733398 9.42517 0.733398 10.7511 0.933594C10.8677 0.649902 11.0427 0.299805 11.201 0.0249023C11.2094 0.00830078 11.2344 0 11.2594 0C12.5094 0.216797 13.701 0.591797 14.8177 1.1084C14.826 1.1084 14.8344 1.1167 14.8427 1.125C17.1094 4.5166 17.7344 7.81689 17.426 11.0835C17.426 11.1001 17.4177 11.1167 17.401 11.125C15.901 12.2251 14.4594 12.8916 13.0344 13.3335C13.0094 13.3418 12.9844 13.3335 12.9761 13.3169C12.6427 12.8584 12.3427 12.375 12.0844 11.8667C12.0677 11.8335 12.0844 11.7998 12.1177 11.7915C12.5927 11.6084 13.0427 11.3916 13.4844 11.1416C13.5177 11.125 13.5177 11.0752 13.4927 11.0498C13.401 10.9834 13.3093 10.9082 13.2177 10.8418C13.201 10.8252 13.176 10.8252 13.1594 10.8335C10.2927 12.1416 7.20105 12.1416 4.36768 10.8335C4.35107 10.8252 4.32605 10.8252 4.30933 10.8418C4.21765 10.9165 4.1261 10.9834 4.03442 11.0586C4.0011 11.0835 4.0011 11.1333 4.04272 11.1499C4.47607 11.4082 4.93433 11.6167 5.40942 11.7998C5.44275 11.8086 5.45105 11.8501 5.44275 11.875C5.17603 12.3833 4.8761 12.8667 4.55103 13.3252C4.526 13.3335 4.5011 13.3418 4.47607 13.3335C3.04272 12.8916 1.60107 12.2251 0.101074 11.125C0.0843506 11.1167 0.0760498 11.1001 0.0760498 11.0835C-0.290649 7.30859 0.684326 4.0332 2.65942 1.125C2.66772 1.1167 2.67603 1.1084 2.69275 1.1084ZM11.651 9.0918C12.5094 9.0918 13.2261 8.2998 13.2261 7.3252C13.2261 6.3501 12.526 5.55859 11.651 5.55859C10.7677 5.55859 10.0677 6.3584 10.076 7.3252C10.076 8.2998 10.776 9.0918 11.651 9.0918ZM5.84265 9.0918C6.70105 9.0918 7.41772 8.2998 7.41772 7.3252C7.41772 6.3501 6.71765 5.55859 5.84265 5.55859C4.95935 5.55859 4.2594 6.3584 4.2677 7.3252C4.2677 8.2998 4.95935 9.0918 5.84265 9.0918Z" fill="#ECF1F0" fill-opacity="1.000000" fill-rule="nonzero"/>
</svg>
