<svg width="15.000000" height="15.200195" viewBox="0 0 15 15.2002" fill="none" xmlns="http://www.w3.org/2000/svg" xmlns:xlink="http://www.w3.org/1999/xlink">
	<desc>
			Created with Pixso.
	</desc>
	<defs/>
	<path id="Vector" d="M0 10.2002L0 8.5332L2.55835 8.5332C2.59998 8.2085 2.65833 7.8916 2.7417 7.5835L0.591675 6.3418L1.42505 4.8999L3.40002 6.0332C3.6333 5.6333 3.91663 5.2749 4.22498 4.9585C4.19165 4.7666 4.16663 4.5752 4.16663 4.3667C4.16663 3.7002 4.3667 3.0752 4.70837 2.5498L3.33337 1.1748L4.5083 0L5.94165 1.43311C7.34167 0.691895 8.52502 1.1582 9.05005 1.43311L10.4917 0L11.6666 1.1748L10.2916 2.5498C10.6447 3.09033 10.8329 3.72119 10.8334 4.3667C10.8334 4.5752 10.8083 4.7666 10.775 4.9668C11.0834 5.2832 11.3667 5.6416 11.6 6.0332L13.575 4.8916L14.4083 6.3335L12.2583 7.5752C12.3417 7.8833 12.4 8.2002 12.4417 8.5249L15 8.5249L15 10.1919L12.4417 10.1919C12.4 10.5166 12.3417 10.8335 12.2583 11.1416L14.4083 12.3833L13.575 13.8252L11.6 12.7002C10.7 14.2085 9.19995 15.2002 7.5 15.2002C5.80005 15.2002 4.30005 14.2085 3.40002 12.7002L1.42505 13.8418L0.591675 12.3999L2.7417 11.1582C2.65833 10.8501 2.59998 10.5332 2.55835 10.2085L0 10.2085L0 10.2002ZM6.66663 11.8667L8.33337 11.8667L8.33337 6.8667L6.66663 6.8667L6.66663 11.8667Z" fill="#ECF1F0" fill-opacity="1.000000" fill-rule="nonzero"/>
</svg>
