<svg width="13.328186" height="15.000000" viewBox="0 0 13.3282 15" fill="none" xmlns="http://www.w3.org/2000/svg" xmlns:xlink="http://www.w3.org/1999/xlink">
	<desc>
			Created with Pixso.
	</desc>
	<defs/>
	<path id="Vector" d="M7.5 0C4.375 0 1.83331 2.4502 1.68335 5.5332L0.083313 7.6665C0.0369263 7.72852 0.00860596 7.80225 0.00170898 7.87939C-0.00524902 7.95654 0.00939941 8.03369 0.0440063 8.10303C0.0786133 8.17236 0.131775 8.23047 0.197632 8.271C0.263428 8.31201 0.339294 8.3335 0.416687 8.3335L1.66669 8.3335L1.66669 10.8335C1.66669 11.75 2.41669 12.5 3.33331 12.5L4.16669 12.5L4.16669 15L10 15L10 11.1001C11.1953 10.5317 12.1617 9.57373 12.7406 8.38379C13.3195 7.19385 13.4764 5.84229 13.1857 4.55078C12.8949 3.25977 12.1736 2.10596 11.1404 1.27881C10.1072 0.452148 8.82343 0.000976562 7.5 0ZM10 5.8335C10 5.94189 9.99164 6.0498 9.98334 6.1582L10.675 6.7085C10.7416 6.7583 10.7584 6.8418 10.7167 6.9165L10.05 8.0752C10.0084 8.1499 9.91669 8.1748 9.84998 8.1499L9.02502 7.81689C8.84998 7.9502 8.66669 8.05811 8.46667 8.1416L8.33331 9.0249C8.32501 9.1084 8.25 9.1665 8.16669 9.1665L6.83331 9.1665C6.75 9.1665 6.68335 9.1084 6.66669 9.0249L6.54169 8.1416C6.33331 8.05811 6.15002 7.9502 5.97498 7.81689L5.15002 8.1499C5.07501 8.1748 4.98334 8.1499 4.94165 8.0752L4.27502 6.9165C4.25488 6.88281 4.24799 6.84277 4.25568 6.80469C4.26343 6.76611 4.28516 6.73193 4.31665 6.7085L5.01666 6.1582C5.00836 6.0498 5 5.94189 5 5.8335C5 5.7251 5.01666 5.6084 5.03333 5.5083L4.32501 4.9585C4.25836 4.9082 4.24164 4.8252 4.28333 4.7417L4.95001 3.5918C4.99164 3.5166 5.07501 3.4917 5.15002 3.5166L5.98334 3.8501C6.15002 3.7251 6.34167 3.6084 6.54169 3.5249L6.66669 2.6416C6.68335 2.55811 6.75 2.5 6.83331 2.5L8.16669 2.5C8.25 2.5 8.31665 2.55811 8.33331 2.6416L8.45831 3.5249C8.65833 3.6084 8.84167 3.7168 9.01666 3.8501L9.84998 3.5166C9.92499 3.4917 10.0167 3.5166 10.05 3.5918L10.7167 4.7417C10.7373 4.77686 10.7445 4.81787 10.7368 4.85791C10.7291 4.89795 10.7072 4.93359 10.675 4.9585L9.96667 5.5083C9.99164 5.6084 10 5.7168 10 5.8335Z" fill="#ECF1F0" fill-opacity="1.000000" fill-rule="nonzero"/>
</svg>
