<svg width="44.000000" height="48.000000" viewBox="0 0 44 48" fill="none" xmlns="http://www.w3.org/2000/svg" xmlns:xlink="http://www.w3.org/1999/xlink">
	<desc>
			Created with Pixso.
	</desc>
	<defs/>
	<path id="Vector" d="M44 26.4C44 32.1287 41.6821 37.6227 37.5564 41.6735C33.4305 45.7242 27.8347 48 22 48C16.1653 48 10.5695 45.7242 6.4436 41.6735C2.31787 37.6227 0 32.1287 0 26.4L0.0733643 5.83203C6.55115 2.11206 14.08 0 22.1222 0C30.0667 0 37.5466 2.08801 44 5.71204L44 26.4ZM24.4445 43.032C32.7311 41.856 39.1111 34.8 39.1111 26.4L39.1111 8.61597C33.9778 6.16797 28.2089 4.80005 22.1222 4.80005C15.8889 4.80005 9.97339 6.23999 4.74219 8.78406L4.88892 26.4C4.88892 34.8 11.3177 41.856 19.5555 43.032L19.5555 38.4L24.4445 38.4L24.4445 43.032ZM19.5555 33.6L12.2222 33.6L7.33337 26.4L14.6666 28.8L17.1111 28.8L19.5555 26.4L24.4445 26.4L26.8889 28.8L29.3334 28.8L36.6666 26.4L31.7778 33.6L24.4445 33.6L22 31.2L19.5555 33.6ZM7.33337 16.8719C8.89783 15.36 11 14.52 13.4445 14.52C15.7667 14.52 17.9423 15.36 19.5555 16.8719C17.9423 18.36 15.7667 19.2 13.4445 19.2C11 19.2 8.89783 18.36 7.33337 16.8719ZM24.4445 16.8719C26.0089 15.36 28.1111 14.52 30.5555 14.52C32.8778 14.52 35.0533 15.36 36.6666 16.8719C35.0533 18.36 32.8778 19.2 30.5555 19.2C28.1111 19.2 26.0089 18.36 24.4445 16.8719Z" fill="#ECF1F0" fill-opacity="1.000000" fill-rule="nonzero"/>
</svg>
