<svg width="12.000000" height="20.000000" viewBox="0 0 12 20" fill="none" xmlns="http://www.w3.org/2000/svg" xmlns:xlink="http://www.w3.org/1999/xlink">
	<desc>
			Created with Pixso.
	</desc>
	<defs/>
	<path id="Vector" d="M0.283447 10.623L10.4667 19.7622C10.6365 19.915 10.8623 20 11.097 20C11.3318 20 11.5575 19.915 11.7274 19.7622L11.7384 19.752C11.821 19.6782 11.8868 19.5889 11.9319 19.4902C11.9768 19.3916 12 19.2852 12 19.1782C12 19.0708 11.9768 18.9644 11.9319 18.8657C11.8868 18.7671 11.821 18.6777 11.7384 18.604L2.14905 9.99805L11.7384 1.396C11.821 1.32227 11.8868 1.23291 11.9319 1.13428C11.9768 1.03564 12 0.929199 12 0.821777C12 0.714844 11.9768 0.608398 11.9319 0.509766C11.8868 0.411133 11.821 0.321777 11.7384 0.248047L11.7274 0.237793C11.5575 0.0849609 11.3318 0 11.097 0C10.8623 0 10.6365 0.0849609 10.4667 0.237793L0.283447 9.37695C0.193848 9.45752 0.122559 9.5542 0.0738525 9.66113C0.0251465 9.76807 0 9.8833 0 10C0 10.1167 0.0251465 10.2319 0.0738525 10.3389C0.122559 10.4458 0.193848 10.5425 0.283447 10.623Z" fill="#ECF1F0" fill-opacity="1.000000" fill-rule="nonzero"/>
</svg>
