<svg width="18.000000" height="18.000000" viewBox="0 0 18 18" fill="none" xmlns="http://www.w3.org/2000/svg" xmlns:xlink="http://www.w3.org/1999/xlink">
	<desc>
			Created with Pixso.
	</desc>
	<defs>
		<clipPath id="clip15_506">
			<rect id="ic:baseline-date-range" width="18.000000" height="18.000000" fill="white" fill-opacity="0"/>
		</clipPath>
	</defs>
	<rect id="ic:baseline-date-range" width="18.000000" height="18.000000" fill="#FFFFFF" fill-opacity="0"/>
	<g clip-path="url(#clip15_506)">
		<path id="Vector" d="M6.75 8.25L5.25 8.25L5.25 9.75L6.75 9.75L6.75 8.25ZM9.75 8.25L8.25 8.25L8.25 9.75L9.75 9.75L9.75 8.25ZM12.75 8.25L11.25 8.25L11.25 9.75L12.75 9.75L12.75 8.25ZM14.25 3L13.5 3L13.5 1.5L12 1.5L12 3L6 3L6 1.5L4.5 1.5L4.5 3L3.75 3C2.91748 3 2.25745 3.6748 2.25745 4.5L2.25 15C2.25 15.3979 2.40808 15.7793 2.68933 16.0605C2.9707 16.3418 3.35217 16.5 3.75 16.5L14.25 16.5C15.075 16.5 15.75 15.8252 15.75 15L15.75 4.5C15.75 3.6748 15.075 3 14.25 3ZM14.25 15L3.75 15L3.75 6.75L14.25 6.75L14.25 15Z" fill="#ECF1F0" fill-opacity="1.000000" fill-rule="nonzero"/>
	</g>
</svg>
