<svg width="48.000000" height="48.000000" viewBox="0 0 48 48" fill="none" xmlns="http://www.w3.org/2000/svg" xmlns:xlink="http://www.w3.org/1999/xlink">
	<desc>
			Created with Pixso.
	</desc>
	<defs/>
	<path id="Vector" d="M1.43994 16L4.80005 16C5.06396 16 5.28003 15.775 5.28003 15.5L5.28003 4.5L15.84 4.5C16.104 4.5 16.3199 4.27502 16.3199 4L16.3199 0.5C16.3199 0.224976 16.104 0 15.84 0L5.04004 0C2.78406 0 0.959961 1.90002 0.959961 4.25L0.959961 15.5C0.959961 15.775 1.17603 16 1.43994 16ZM32.16 4.5L42.72 4.5L42.72 15.5C42.72 15.775 42.936 16 43.2 16L46.5601 16C46.824 16 47.04 15.775 47.04 15.5L47.04 4.25C47.04 1.90002 45.2159 0 42.96 0L32.16 0C31.896 0 31.6801 0.224976 31.6801 0.5L31.6801 4C31.6801 4.27502 31.896 4.5 32.16 4.5ZM15.84 43.5L5.28003 43.5L5.28003 32.5C5.28003 32.225 5.06396 32 4.80005 32L1.43994 32C1.17603 32 0.959961 32.225 0.959961 32.5L0.959961 43.75C0.959961 46.1 2.78406 48 5.04004 48L15.84 48C16.104 48 16.3199 47.775 16.3199 47.5L16.3199 44C16.3199 43.725 16.104 43.5 15.84 43.5ZM46.5601 32L43.2 32C42.936 32 42.72 32.225 42.72 32.5L42.72 43.5L32.16 43.5C31.896 43.5 31.6801 43.725 31.6801 44L31.6801 47.5C31.6801 47.775 31.896 48 32.16 48L42.96 48C45.2159 48 47.04 46.1 47.04 43.75L47.04 32.5C47.04 32.225 46.824 32 46.5601 32ZM47.52 21.75L0.47998 21.75C0.215942 21.75 0 21.975 0 22.25L0 25.75C0 26.025 0.215942 26.25 0.47998 26.25L47.52 26.25C47.7841 26.25 48 26.025 48 25.75L48 22.25C48 21.975 47.7841 21.75 47.52 21.75Z" fill="#ECF1F0" fill-opacity="1.000000" fill-rule="nonzero"/>
</svg>
