<svg width="48.000000" height="48.000000" viewBox="0 0 48 48" fill="none" xmlns="http://www.w3.org/2000/svg" xmlns:xlink="http://www.w3.org/1999/xlink">
	<desc>
			Created with Pixso.
	</desc>
	<defs>
		<clipPath id="clip6_647">
			<rect id="protect" width="48.000000" height="48.000000" fill="white" fill-opacity="0"/>
		</clipPath>
	</defs>
	<rect id="protect" width="48.000000" height="48.000000" fill="#FFFFFF" fill-opacity="0"/>
	<g clip-path="url(#clip6_647)">
		<path id="Vector" d="M19.3333 12.2181L17.5555 13.9636L20.2222 16.5818C19.1111 17.2363 18.2222 18.3273 17.7778 19.6364L12.8889 19.6364L12.8889 21.8182L17.3333 21.8182L17.3333 24L12.8889 24L12.8889 26.1818L17.3333 26.1818L17.3333 28.3636L12.8889 28.3636L12.8889 30.5454L17.7778 30.5454C18.6667 33.1636 21.1111 34.9091 24 34.9091C26.8889 34.9091 29.3333 33.1636 30.2222 30.5454L35.1111 30.5454L35.1111 28.3636L30.6667 28.3636L30.6667 26.1818L35.1111 26.1818L35.1111 24L30.6667 24L30.6667 21.8182L35.1111 21.8182L35.1111 19.6364L30.2222 19.6364C29.7778 18.3273 28.8889 17.2363 27.7778 16.3636L30.4445 13.7455L28.8889 12.2181L25.7778 15.2727L24 15.2727C23.5555 15.2727 22.8889 15.2727 22.4445 15.491L19.3333 12.2181ZM21.7778 21.8182L26.2222 21.8182L26.2222 24L21.7778 24L21.7778 21.8182ZM21.7778 26.1818L26.2222 26.1818L26.2222 28.3636L21.7778 28.3636L21.7778 26.1818ZM44 21.8182C44 33.8182 35.5555 45.1637 24 48C12.4445 45.1637 4 33.8182 4 21.8182L4 8.72729L24 0L44 8.72729L44 21.8182ZM24 43.6364C32.4445 41.4546 39.5555 31.6364 39.5555 22.2545L39.5555 11.5636L24 4.80005L8.44446 11.5636L8.44446 22.2545C8.44446 31.6364 15.5555 41.4546 24 43.6364Z" fill="#ECF1F0" fill-opacity="1.000000" fill-rule="nonzero"/>
	</g>
</svg>
