<svg width="34.000000" height="34.000000" viewBox="0 0 34 34" fill="none" xmlns="http://www.w3.org/2000/svg" xmlns:xlink="http://www.w3.org/1999/xlink">
	<desc>
			Created with Pixso.
	</desc>
	<defs>
		<clipPath id="clip203_940">
			<rect id="clarity:share-solid" width="16.000000" height="16.000000" transform="translate(9.000000 9.000000)" fill="white" fill-opacity="0"/>
		</clipPath>
	</defs>
	<rect id="Frame 22" rx="17.000000" width="34.000000" height="34.000000" fill="#0FAE96" fill-opacity="1.000000"/>
	<rect id="clarity:share-solid" width="16.000000" height="16.000000" transform="translate(9.000000 9.000000)" fill="#FFFFFF" fill-opacity="0"/>
	<g clip-path="url(#clip203_940)">
		<path id="Vector" d="M21.2356 19.6665C20.9363 19.6675 20.6403 19.729 20.3652 19.8477C20.0903 19.9658 19.8422 20.1387 19.6356 20.3555L14.2178 17.644C14.3511 17.2402 14.3511 16.8037 14.2178 16.3999L19.6445 13.6396C20.0332 14.0493 20.5603 14.2998 21.1234 14.3423C21.6864 14.3853 22.2452 14.2168 22.6912 13.8706C23.1371 13.5239 23.4384 13.0239 23.5363 12.4678C23.6342 11.9116 23.5217 11.3394 23.2209 10.8613C22.9202 10.3833 22.4524 10.0342 21.9087 9.88232C21.3649 9.72998 20.7839 9.78516 20.2787 10.0376C19.7734 10.2896 19.3801 10.7207 19.1749 11.2471C18.9698 11.7729 18.9678 12.3564 19.1689 12.8843L13.7955 15.6177C13.5054 15.2627 13.1125 15.0063 12.6709 14.8833C12.2291 14.7603 11.7603 14.7773 11.3285 14.9312C10.8967 15.0854 10.5231 15.3691 10.2589 15.7437C9.99487 16.1187 9.85303 16.5659 9.85303 17.0244C9.85303 17.4829 9.99487 17.9297 10.2589 18.3047C10.5231 18.6792 10.8967 18.9634 11.3285 19.1172C11.7603 19.2715 12.2291 19.2881 12.6709 19.165C13.1125 19.0425 13.5054 18.7856 13.7955 18.4307L19.1556 21.1289C19.0651 21.3721 19.0183 21.6294 19.0178 21.8887C19.0178 22.3281 19.1482 22.7578 19.3923 23.123C19.6365 23.4888 19.9835 23.7734 20.3896 23.9419C20.7957 24.1099 21.2426 24.1538 21.6736 24.0684C22.1046 23.9824 22.5006 23.771 22.8114 23.46C23.1222 23.1494 23.3339 22.7534 23.4196 22.3223C23.5052 21.8911 23.4613 21.4443 23.2931 21.0381C23.1249 20.6323 22.8401 20.2852 22.4746 20.041C22.1091 19.7969 21.6796 19.6665 21.24 19.6665L21.2356 19.6665Z" fill="#ECF1F0" fill-opacity="1.000000" fill-rule="nonzero"/>
	</g>
</svg>
