<svg width="24.000000" height="24.000000" viewBox="0 0 24 24" fill="none" xmlns="http://www.w3.org/2000/svg" xmlns:xlink="http://www.w3.org/1999/xlink">
	<desc>
			Created with Pixso.
	</desc>
	<defs/>
	<path id="Vector" d="M12 0C5.37598 0 0 5.37598 0 12C0 18.624 5.37598 24 12 24C18.624 24 24 18.624 24 12C24 5.37598 18.624 0 12 0ZM17.568 8.15997C17.388 10.056 16.608 14.664 16.212 16.788C16.044 17.688 15.708 17.988 15.396 18.024C14.7 18.084 14.172 17.568 13.5 17.124C12.444 16.428 11.844 15.996 10.824 15.324C9.63599 14.544 10.404 14.112 11.088 13.416C11.268 13.236 14.34 10.44 14.4 10.188C14.4083 10.1498 14.4072 10.1102 14.3968 10.0726C14.3863 10.0349 14.3668 10.0004 14.34 9.97198C14.268 9.91199 14.172 9.93597 14.088 9.948C13.98 9.97198 12.3 11.088 9.02399 13.296C8.54401 13.62 8.112 13.788 7.72803 13.776C7.29602 13.764 6.47998 13.536 5.86798 13.332C5.112 13.092 4.52399 12.96 4.57202 12.54C4.59601 12.324 4.896 12.108 5.46002 11.88C8.96399 10.356 11.292 9.34802 12.456 8.86798C15.792 7.47601 16.476 7.23602 16.932 7.23602C17.028 7.23602 17.256 7.26001 17.4 7.38C17.52 7.47601 17.556 7.60797 17.568 7.70398C17.556 7.776 17.58 7.992 17.568 8.15997Z" fill="#ECF1F0" fill-opacity="1.000000" fill-rule="nonzero"/>
</svg>
