<svg width="24.000000" height="24.000000" viewBox="0 0 24 24" fill="none" xmlns="http://www.w3.org/2000/svg" xmlns:xlink="http://www.w3.org/1999/xlink">
	<desc>
			Created with Pixso.
	</desc>
	<defs/>
	<path id="Vector" d="M12 0C5.3725 0 0 5.3725 0 12C0 18.6275 5.3725 24 12 24C18.6275 24 24 18.6275 24 12C24 5.3725 18.6275 0 12 0ZM16.8812 9.83002C16.8862 9.9325 16.8875 10.035 16.8875 10.135C16.8875 13.26 14.5112 16.8613 10.1638 16.8613C8.87909 16.8634 7.62122 16.4944 6.54126 15.7988C6.72498 15.8212 6.91376 15.83 7.10498 15.83C8.21252 15.83 9.23126 15.4537 10.04 14.8187C9.54712 14.8091 9.06958 14.6459 8.67389 14.3519C8.2782 14.0579 7.98407 13.6478 7.83252 13.1788C8.18646 13.246 8.55109 13.2319 8.89874 13.1375C8.36383 13.0293 7.88275 12.7394 7.53711 12.3171C7.19153 11.8947 7.00262 11.3658 7.0025 10.82L7.0025 10.7913C7.32123 10.9675 7.68628 11.075 8.07373 11.0875C7.57227 10.7537 7.21722 10.2408 7.0813 9.65393C6.94537 9.06702 7.03882 8.45032 7.34253 7.92999C7.93622 8.65997 8.67657 9.2572 9.51569 9.68286C10.3549 10.1086 11.274 10.3533 12.2137 10.4012C12.0943 9.89417 12.1457 9.36176 12.36 8.8869C12.5743 8.41199 12.9395 8.02124 13.3989 7.77533C13.8582 7.52942 14.3859 7.44214 14.8998 7.5271C15.4139 7.612 15.8854 7.86438 16.2413 8.245C16.7702 8.14032 17.2775 7.94629 17.7413 7.67126C17.5649 8.21893 17.1959 8.68396 16.7025 8.97998C17.1711 8.92358 17.6286 8.79761 18.06 8.60626C17.7431 9.08112 17.3439 9.49554 16.8812 9.83002Z" fill="#ECF1F0" fill-opacity="1.000000" fill-rule="nonzero"/>
</svg>
