<svg width="24.000000" height="24.000000" viewBox="0 0 24 24" fill="none" xmlns="http://www.w3.org/2000/svg" xmlns:xlink="http://www.w3.org/1999/xlink">
	<desc>
			Created with Pixso.
	</desc>
	<defs>
		<clipPath id="clip2_1375">
			<rect id="akar-icons:whatsapp-fill" width="24.000000" height="24.000000" fill="white" fill-opacity="0"/>
		</clipPath>
		<clipPath id="clip2_1377">
			<rect id="ic:baseline-telegram" width="24.000000" height="24.000000" fill="white" fill-opacity="0"/>
		</clipPath>
		<clipPath id="clip2_1378">
			<rect id="Frame 2" width="24.000000" height="24.000000" fill="white" fill-opacity="0"/>
		</clipPath>
	</defs>
	<rect id="Component 17" width="24.000000" height="24.000000" fill="#FFFFFF" fill-opacity="0"/>
	<rect id="akar-icons:whatsapp-fill" width="24.000000" height="24.000000" fill="#FFFFFF" fill-opacity="0"/>
	<g clip-path="url(#clip2_1375)">
		<path id="Vector" d="M17.415 14.382C17.117 14.233 15.656 13.515 15.384 13.415C15.112 13.316 14.914 13.267 14.715 13.565C14.517 13.861 13.948 14.531 13.775 14.729C13.601 14.928 13.428 14.952 13.131 14.804C12.834 14.654 11.876 14.341 10.741 13.329C9.85797 12.541 9.26099 11.568 9.08801 11.27C8.91498 10.973 9.06897 10.812 9.21802 10.664C9.35199 10.531 9.51501 10.317 9.664 10.144C9.81299 9.96997 9.862 9.84601 9.961 9.64697C10.061 9.44897 10.011 9.276 9.93597 9.12695C9.862 8.97797 9.26801 7.51495 9.02002 6.91998C8.77899 6.341 8.534 6.41998 8.35199 6.40997C8.17798 6.40198 7.97998 6.39996 7.78198 6.39996C7.58398 6.39996 7.26202 6.474 6.98999 6.77197C6.71698 7.06897 5.95001 7.78796 5.95001 9.25098C5.95001 10.713 7.01398 12.126 7.16302 12.325C7.31201 12.5229 9.258 15.525 12.239 16.812C12.949 17.118 13.502 17.301 13.933 17.437C14.645 17.664 15.293 17.632 15.805 17.555C16.375 17.47 17.563 16.836 17.811 16.142C18.058 15.448 18.058 14.853 17.984 14.729C17.91 14.605 17.712 14.531 17.414 14.382L17.415 14.382ZM11.993 21.785L11.989 21.785C10.2184 21.7853 8.48035 21.3093 6.95697 20.407L6.59698 20.193L2.85498 21.175L3.854 17.527L3.61902 17.153C2.62915 15.5773 2.10529 13.7538 2.10797 11.893C2.10999 6.44299 6.54401 2.00897 11.997 2.00897C14.637 2.00897 17.119 3.039 18.985 4.90698C19.9054 5.82355 20.6349 6.91357 21.1313 8.11389C21.6277 9.31421 21.8812 10.6011 21.877 11.9C21.875 17.35 17.441 21.785 11.993 21.785ZM20.405 3.48798C19.3032 2.37891 17.9922 1.49951 16.5481 0.900757C15.1039 0.302063 13.5554 -0.00415039 11.992 0C5.43799 0 0.10199 5.33496 0.0999756 11.892C0.0969849 13.9788 0.644348 16.0294 1.68701 17.837L0 24L6.30402 22.346C8.04785 23.2961 10.0021 23.7939 11.988 23.794L11.993 23.794C18.547 23.794 23.883 18.459 23.885 11.901C23.8898 10.3383 23.5848 8.7901 22.9874 7.34601C22.3901 5.90192 21.5124 4.59064 20.405 3.48798Z" fill="#ECF1F0" fill-opacity="1.000000" fill-rule="evenodd"/>
	</g>
	<g clip-path="url(#clip2_1378)"/>
</svg>
