<svg width="24.000000" height="24.000000" viewBox="0 0 24 24" fill="none" xmlns="http://www.w3.org/2000/svg" xmlns:xlink="http://www.w3.org/1999/xlink">
	<desc>
			Created with Pixso.
	</desc>
	<defs/>
	<path id="Vector" d="M14.0037 11.7913L11.1962 10.4813C10.9512 10.3675 10.75 10.495 10.75 10.7662L10.75 13.2338C10.75 13.505 10.9512 13.6325 11.1962 13.5187L14.0025 12.2087C14.2488 12.0938 14.2488 11.9062 14.0037 11.7913ZM12 0C5.3725 0 0 5.3725 0 12C0 18.6275 5.3725 24 12 24C18.6275 24 24 18.6275 24 12C24 5.3725 18.6275 0 12 0ZM12 16.875C5.85748 16.875 5.75 16.3212 5.75 12C5.75 7.67877 5.85748 7.125 12 7.125C18.1425 7.125 18.25 7.67877 18.25 12C18.25 16.3212 18.1425 16.875 12 16.875Z" fill="#ECF1F0" fill-opacity="1.000000" fill-rule="nonzero"/>
</svg>
